<mxfile host="app.diagrams.net" agent="Mozilla/5.0 (Windows NT 10.0; Win64; x64) AppleWebKit/537.36 (KHTML, like Gecko) Chrome/131.0.0.0 Safari/537.36 Edg/131.0.0.0" version="25.0.1">
  <diagram name="หน้า-1" id="cwAnQ8XdTXlcAOdjzqAJ">
    <mxGraphModel dx="3856" dy="1445" grid="1" gridSize="10" guides="1" tooltips="1" connect="1" arrows="1" fold="1" page="1" pageScale="1" pageWidth="827" pageHeight="1169" math="0" shadow="0">
      <root>
        <mxCell id="0" />
        <mxCell id="1" parent="0" />
        <mxCell id="m8H-gx-M-Z5vibgkSKcY-1" value="" style="edgeStyle=orthogonalEdgeStyle;rounded=0;orthogonalLoop=1;jettySize=auto;html=1;" edge="1" parent="1" source="m8H-gx-M-Z5vibgkSKcY-2" target="m8H-gx-M-Z5vibgkSKcY-3">
          <mxGeometry relative="1" as="geometry" />
        </mxCell>
        <mxCell id="m8H-gx-M-Z5vibgkSKcY-2" value="Start" style="ellipse;whiteSpace=wrap;html=1;" vertex="1" parent="1">
          <mxGeometry x="-473" y="50" width="120" height="80" as="geometry" />
        </mxCell>
        <mxCell id="m8H-gx-M-Z5vibgkSKcY-3" value="รับข้อมูลUser" style="shape=parallelogram;perimeter=parallelogramPerimeter;whiteSpace=wrap;html=1;fixedSize=1;" vertex="1" parent="1">
          <mxGeometry x="-508" y="175" width="190" height="60" as="geometry" />
        </mxCell>
        <mxCell id="m8H-gx-M-Z5vibgkSKcY-4" value="END" style="ellipse;whiteSpace=wrap;html=1;" vertex="1" parent="1">
          <mxGeometry x="-473" y="885" width="120" height="80" as="geometry" />
        </mxCell>
        <mxCell id="m8H-gx-M-Z5vibgkSKcY-25" style="edgeStyle=orthogonalEdgeStyle;rounded=0;orthogonalLoop=1;jettySize=auto;html=1;entryX=0;entryY=0.5;entryDx=0;entryDy=0;" edge="1" parent="1" source="m8H-gx-M-Z5vibgkSKcY-6" target="m8H-gx-M-Z5vibgkSKcY-14">
          <mxGeometry relative="1" as="geometry">
            <Array as="points">
              <mxPoint x="-645" y="813" />
              <mxPoint x="-488" y="813" />
            </Array>
          </mxGeometry>
        </mxCell>
        <mxCell id="m8H-gx-M-Z5vibgkSKcY-6" value="February has 28 day" style="shape=parallelogram;perimeter=parallelogramPerimeter;whiteSpace=wrap;html=1;fixedSize=1;" vertex="1" parent="1">
          <mxGeometry x="-740" y="650" width="190" height="60" as="geometry" />
        </mxCell>
        <mxCell id="m8H-gx-M-Z5vibgkSKcY-7" value="" style="edgeStyle=orthogonalEdgeStyle;rounded=0;orthogonalLoop=1;jettySize=auto;html=1;" edge="1" parent="1" target="m8H-gx-M-Z5vibgkSKcY-10">
          <mxGeometry relative="1" as="geometry">
            <mxPoint x="-413" y="234.99999999999977" as="sourcePoint" />
          </mxGeometry>
        </mxCell>
        <mxCell id="m8H-gx-M-Z5vibgkSKcY-9" style="edgeStyle=orthogonalEdgeStyle;rounded=0;orthogonalLoop=1;jettySize=auto;html=1;entryX=0.5;entryY=0;entryDx=0;entryDy=0;" edge="1" parent="1" source="m8H-gx-M-Z5vibgkSKcY-10" target="m8H-gx-M-Z5vibgkSKcY-6">
          <mxGeometry relative="1" as="geometry">
            <Array as="points">
              <mxPoint x="-645" y="345" />
            </Array>
          </mxGeometry>
        </mxCell>
        <mxCell id="m8H-gx-M-Z5vibgkSKcY-22" style="edgeStyle=orthogonalEdgeStyle;rounded=0;orthogonalLoop=1;jettySize=auto;html=1;entryX=0.5;entryY=0;entryDx=0;entryDy=0;" edge="1" parent="1" source="m8H-gx-M-Z5vibgkSKcY-10" target="m8H-gx-M-Z5vibgkSKcY-17">
          <mxGeometry relative="1" as="geometry">
            <Array as="points">
              <mxPoint x="-286" y="345" />
              <mxPoint x="-286" y="445" />
            </Array>
          </mxGeometry>
        </mxCell>
        <mxCell id="m8H-gx-M-Z5vibgkSKcY-10" value="&lt;font style=&quot;font-size: 10px;&quot;&gt;ตัวเลข หาร 4 ลงตัวไหม&lt;br&gt;&lt;/font&gt;" style="rhombus;whiteSpace=wrap;html=1;" vertex="1" parent="1">
          <mxGeometry x="-486.5" y="305" width="147" height="80" as="geometry" />
        </mxCell>
        <mxCell id="m8H-gx-M-Z5vibgkSKcY-13" style="edgeStyle=orthogonalEdgeStyle;rounded=0;orthogonalLoop=1;jettySize=auto;html=1;entryX=0.5;entryY=0;entryDx=0;entryDy=0;" edge="1" parent="1" source="m8H-gx-M-Z5vibgkSKcY-14" target="m8H-gx-M-Z5vibgkSKcY-4">
          <mxGeometry relative="1" as="geometry" />
        </mxCell>
        <mxCell id="m8H-gx-M-Z5vibgkSKcY-14" value="" style="ellipse;whiteSpace=wrap;html=1;aspect=fixed;" vertex="1" parent="1">
          <mxGeometry x="-425.5" y="800" width="25" height="25" as="geometry" />
        </mxCell>
        <mxCell id="m8H-gx-M-Z5vibgkSKcY-15" value="Y" style="text;html=1;align=center;verticalAlign=middle;whiteSpace=wrap;rounded=0;" vertex="1" parent="1">
          <mxGeometry x="-520" y="310" width="60" height="30" as="geometry" />
        </mxCell>
        <mxCell id="m8H-gx-M-Z5vibgkSKcY-16" value="N" style="text;html=1;align=center;verticalAlign=middle;whiteSpace=wrap;rounded=0;" vertex="1" parent="1">
          <mxGeometry x="-370" y="310" width="60" height="30" as="geometry" />
        </mxCell>
        <mxCell id="m8H-gx-M-Z5vibgkSKcY-23" style="edgeStyle=orthogonalEdgeStyle;rounded=0;orthogonalLoop=1;jettySize=auto;html=1;entryX=0.5;entryY=0;entryDx=0;entryDy=0;" edge="1" parent="1" source="m8H-gx-M-Z5vibgkSKcY-17" target="m8H-gx-M-Z5vibgkSKcY-20">
          <mxGeometry relative="1" as="geometry">
            <Array as="points">
              <mxPoint x="-413" y="545" />
            </Array>
          </mxGeometry>
        </mxCell>
        <mxCell id="m8H-gx-M-Z5vibgkSKcY-24" style="edgeStyle=orthogonalEdgeStyle;rounded=0;orthogonalLoop=1;jettySize=auto;html=1;entryX=0.5;entryY=0;entryDx=0;entryDy=0;" edge="1" parent="1" source="m8H-gx-M-Z5vibgkSKcY-17" target="m8H-gx-M-Z5vibgkSKcY-21">
          <mxGeometry relative="1" as="geometry">
            <Array as="points">
              <mxPoint x="-185" y="545" />
            </Array>
          </mxGeometry>
        </mxCell>
        <mxCell id="m8H-gx-M-Z5vibgkSKcY-17" value="&lt;font style=&quot;font-size: 10px;&quot;&gt;ตัวเลข หาร 100 หรือ&lt;/font&gt;&lt;div&gt;&lt;font style=&quot;font-size: 10px;&quot;&gt;400 ลงตัวไหม&lt;br&gt;&lt;/font&gt;&lt;/div&gt;" style="rhombus;whiteSpace=wrap;html=1;" vertex="1" parent="1">
          <mxGeometry x="-360" y="505" width="147" height="80" as="geometry" />
        </mxCell>
        <mxCell id="m8H-gx-M-Z5vibgkSKcY-26" value="" style="edgeStyle=orthogonalEdgeStyle;rounded=0;orthogonalLoop=1;jettySize=auto;html=1;" edge="1" parent="1" source="m8H-gx-M-Z5vibgkSKcY-20" target="m8H-gx-M-Z5vibgkSKcY-14">
          <mxGeometry relative="1" as="geometry" />
        </mxCell>
        <mxCell id="m8H-gx-M-Z5vibgkSKcY-20" value="February has 28 day" style="shape=parallelogram;perimeter=parallelogramPerimeter;whiteSpace=wrap;html=1;fixedSize=1;" vertex="1" parent="1">
          <mxGeometry x="-508" y="650" width="190" height="60" as="geometry" />
        </mxCell>
        <mxCell id="m8H-gx-M-Z5vibgkSKcY-27" style="edgeStyle=orthogonalEdgeStyle;rounded=0;orthogonalLoop=1;jettySize=auto;html=1;entryX=1;entryY=0.5;entryDx=0;entryDy=0;" edge="1" parent="1" source="m8H-gx-M-Z5vibgkSKcY-21" target="m8H-gx-M-Z5vibgkSKcY-14">
          <mxGeometry relative="1" as="geometry">
            <Array as="points">
              <mxPoint x="-185" y="813" />
              <mxPoint x="-340" y="813" />
            </Array>
          </mxGeometry>
        </mxCell>
        <mxCell id="m8H-gx-M-Z5vibgkSKcY-21" value="February has 29 day" style="shape=parallelogram;perimeter=parallelogramPerimeter;whiteSpace=wrap;html=1;fixedSize=1;" vertex="1" parent="1">
          <mxGeometry x="-280" y="650" width="190" height="60" as="geometry" />
        </mxCell>
        <mxCell id="m8H-gx-M-Z5vibgkSKcY-28" value="Y" style="text;html=1;align=center;verticalAlign=middle;whiteSpace=wrap;rounded=0;" vertex="1" parent="1">
          <mxGeometry x="-390" y="505" width="60" height="30" as="geometry" />
        </mxCell>
        <mxCell id="m8H-gx-M-Z5vibgkSKcY-29" value="N" style="text;html=1;align=center;verticalAlign=middle;whiteSpace=wrap;rounded=0;" vertex="1" parent="1">
          <mxGeometry x="-240" y="505" width="60" height="30" as="geometry" />
        </mxCell>
      </root>
    </mxGraphModel>
  </diagram>
</mxfile>
